<svg aria-roledescription="flowchart-v2" role="graphics-document document" viewBox="-8 -8 1578.40625 85" style="max-width: 1578.40625px;" xmlns="http://www.w3.org/2000/svg" width="100%" id="mermaid-svg-1770547757153-5jscnpj3a"><style>#mermaid-svg-1770547757153-5jscnpj3a{font-family:"trebuchet ms",verdana,arial,sans-serif;font-size:16px;fill:#c9d1d9;}#mermaid-svg-1770547757153-5jscnpj3a .error-icon{fill:#5a1d1d;}#mermaid-svg-1770547757153-5jscnpj3a .error-text{fill:#d47616;stroke:#d47616;}#mermaid-svg-1770547757153-5jscnpj3a .edge-thickness-normal{stroke-width:2px;}#mermaid-svg-1770547757153-5jscnpj3a .edge-thickness-thick{stroke-width:3.5px;}#mermaid-svg-1770547757153-5jscnpj3a .edge-pattern-solid{stroke-dasharray:0;}#mermaid-svg-1770547757153-5jscnpj3a .edge-pattern-dashed{stroke-dasharray:3;}#mermaid-svg-1770547757153-5jscnpj3a .edge-pattern-dotted{stroke-dasharray:2;}#mermaid-svg-1770547757153-5jscnpj3a .marker{fill:#c9d1d9;stroke:#c9d1d9;}#mermaid-svg-1770547757153-5jscnpj3a .marker.cross{stroke:#c9d1d9;}#mermaid-svg-1770547757153-5jscnpj3a svg{font-family:"trebuchet ms",verdana,arial,sans-serif;font-size:16px;}#mermaid-svg-1770547757153-5jscnpj3a .label{font-family:"trebuchet ms",verdana,arial,sans-serif;color:#c9d1d9;}#mermaid-svg-1770547757153-5jscnpj3a .cluster-label text{fill:#c9d1d9;}#mermaid-svg-1770547757153-5jscnpj3a .cluster-label span,#mermaid-svg-1770547757153-5jscnpj3a p{color:#c9d1d9;}#mermaid-svg-1770547757153-5jscnpj3a .label text,#mermaid-svg-1770547757153-5jscnpj3a span,#mermaid-svg-1770547757153-5jscnpj3a p{fill:#c9d1d9;color:#c9d1d9;}#mermaid-svg-1770547757153-5jscnpj3a .node rect,#mermaid-svg-1770547757153-5jscnpj3a .node circle,#mermaid-svg-1770547757153-5jscnpj3a .node ellipse,#mermaid-svg-1770547757153-5jscnpj3a .node polygon,#mermaid-svg-1770547757153-5jscnpj3a .node path{fill:#0d1117;stroke:#454545;stroke-width:1px;}#mermaid-svg-1770547757153-5jscnpj3a .flowchart-label text{text-anchor:middle;}#mermaid-svg-1770547757153-5jscnpj3a .node .label{text-align:center;}#mermaid-svg-1770547757153-5jscnpj3a .node.clickable{cursor:pointer;}#mermaid-svg-1770547757153-5jscnpj3a .arrowheadPath{fill:#f2eee8;}#mermaid-svg-1770547757153-5jscnpj3a .edgePath .path{stroke:#c9d1d9;stroke-width:2.0px;}#mermaid-svg-1770547757153-5jscnpj3a .flowchart-link{stroke:#c9d1d9;fill:none;}#mermaid-svg-1770547757153-5jscnpj3a .edgeLabel{background-color:#0d111799;text-align:center;}#mermaid-svg-1770547757153-5jscnpj3a .edgeLabel rect{opacity:0.5;background-color:#0d111799;fill:#0d111799;}#mermaid-svg-1770547757153-5jscnpj3a .labelBkg{background-color:rgba(13, 17, 23, 0.5);}#mermaid-svg-1770547757153-5jscnpj3a .cluster rect{fill:rgba(38, 79, 120, 0.5);stroke:#454545;stroke-width:1px;}#mermaid-svg-1770547757153-5jscnpj3a .cluster text{fill:#c9d1d9;}#mermaid-svg-1770547757153-5jscnpj3a .cluster span,#mermaid-svg-1770547757153-5jscnpj3a p{color:#c9d1d9;}#mermaid-svg-1770547757153-5jscnpj3a div.mermaidTooltip{position:absolute;text-align:center;max-width:200px;padding:2px;font-family:"trebuchet ms",verdana,arial,sans-serif;font-size:12px;background:#264f78;border:1px solid #454545;border-radius:2px;pointer-events:none;z-index:100;}#mermaid-svg-1770547757153-5jscnpj3a .flowchartTitleText{text-anchor:middle;font-size:18px;fill:#c9d1d9;}#mermaid-svg-1770547757153-5jscnpj3a :root{--mermaid-font-family:"trebuchet ms",verdana,arial,sans-serif;}</style><g><marker orient="auto" markerHeight="12" markerWidth="12" markerUnits="userSpaceOnUse" refY="5" refX="6" viewBox="0 0 10 10" class="marker flowchart" id="mermaid-svg-1770547757153-5jscnpj3a_flowchart-pointEnd"><path style="stroke-width: 1; stroke-dasharray: 1, 0;" class="arrowMarkerPath" d="M 0 0 L 10 5 L 0 10 z"/></marker><marker orient="auto" markerHeight="12" markerWidth="12" markerUnits="userSpaceOnUse" refY="5" refX="4.5" viewBox="0 0 10 10" class="marker flowchart" id="mermaid-svg-1770547757153-5jscnpj3a_flowchart-pointStart"><path style="stroke-width: 1; stroke-dasharray: 1, 0;" class="arrowMarkerPath" d="M 0 5 L 10 10 L 10 0 z"/></marker><marker orient="auto" markerHeight="11" markerWidth="11" markerUnits="userSpaceOnUse" refY="5" refX="11" viewBox="0 0 10 10" class="marker flowchart" id="mermaid-svg-1770547757153-5jscnpj3a_flowchart-circleEnd"><circle style="stroke-width: 1; stroke-dasharray: 1, 0;" class="arrowMarkerPath" r="5" cy="5" cx="5"/></marker><marker orient="auto" markerHeight="11" markerWidth="11" markerUnits="userSpaceOnUse" refY="5" refX="-1" viewBox="0 0 10 10" class="marker flowchart" id="mermaid-svg-1770547757153-5jscnpj3a_flowchart-circleStart"><circle style="stroke-width: 1; stroke-dasharray: 1, 0;" class="arrowMarkerPath" r="5" cy="5" cx="5"/></marker><marker orient="auto" markerHeight="11" markerWidth="11" markerUnits="userSpaceOnUse" refY="5.2" refX="12" viewBox="0 0 11 11" class="marker cross flowchart" id="mermaid-svg-1770547757153-5jscnpj3a_flowchart-crossEnd"><path style="stroke-width: 2; stroke-dasharray: 1, 0;" class="arrowMarkerPath" d="M 1,1 l 9,9 M 10,1 l -9,9"/></marker><marker orient="auto" markerHeight="11" markerWidth="11" markerUnits="userSpaceOnUse" refY="5.2" refX="-1" viewBox="0 0 11 11" class="marker cross flowchart" id="mermaid-svg-1770547757153-5jscnpj3a_flowchart-crossStart"><path style="stroke-width: 2; stroke-dasharray: 1, 0;" class="arrowMarkerPath" d="M 1,1 l 9,9 M 10,1 l -9,9"/></marker><g class="root"><g class="clusters"/><g class="edgePaths"><path marker-end="url(#mermaid-svg-1770547757153-5jscnpj3a_flowchart-pointEnd)" style="fill:none;" class="edge-thickness-normal edge-pattern-solid flowchart-link LS-ServerStart LE-Init" id="L-ServerStart-Init-0" d="M100.906,43L105.073,43C109.24,43,117.573,43,125.023,43C132.473,43,139.04,43,142.323,43L145.606,43"/><path marker-end="url(#mermaid-svg-1770547757153-5jscnpj3a_flowchart-pointEnd)" style="fill:none;" class="edge-thickness-normal edge-pattern-solid flowchart-link LS-Init LE-Schedule" id="L-Init-Schedule-0" d="M293.93,43L298.096,43C302.263,43,310.596,43,318.046,43C325.496,43,332.063,43,335.346,43L338.63,43"/><path marker-end="url(#mermaid-svg-1770547757153-5jscnpj3a_flowchart-pointEnd)" style="fill:none;" class="edge-thickness-normal edge-pattern-solid flowchart-link LS-Schedule LE-Wait" id="L-Schedule-Wait-0" d="M506.57,43L510.737,43C514.904,43,523.237,43,530.687,43C538.137,43,544.704,43,547.987,43L551.27,43"/><path marker-end="url(#mermaid-svg-1770547757153-5jscnpj3a_flowchart-pointEnd)" style="fill:none;" class="edge-thickness-normal edge-pattern-solid flowchart-link LS-Wait LE-Execute" id="L-Wait-Execute-0" d="M683.84,26L689.152,24.5C694.464,23,705.087,20,713.683,18.5C722.278,17,728.844,17,732.128,17L735.411,17"/><path marker-end="url(#mermaid-svg-1770547757153-5jscnpj3a_flowchart-pointEnd)" style="fill:none;" class="edge-thickness-normal edge-pattern-solid flowchart-link LS-Execute LE-Check" id="L-Execute-Check-0" d="M871.242,17L875.409,17C879.576,17,887.909,17,895.359,17C902.809,17,909.376,17,912.659,17L915.942,17"/><path marker-end="url(#mermaid-svg-1770547757153-5jscnpj3a_flowchart-pointEnd)" style="fill:none;" class="edge-thickness-normal edge-pattern-solid flowchart-link LS-Check LE-URLCheck" id="L-Check-URLCheck-0" d="M1058.719,17L1062.885,17C1067.052,17,1075.385,17,1082.835,17C1090.285,17,1096.852,17,1100.135,17L1103.419,17"/><path marker-end="url(#mermaid-svg-1770547757153-5jscnpj3a_flowchart-pointEnd)" style="fill:none;" class="edge-thickness-normal edge-pattern-solid flowchart-link LS-URLCheck LE-Log" id="L-URLCheck-Log-0" d="M1186.695,17L1190.862,17C1195.029,17,1203.362,17,1210.812,17C1218.262,17,1224.829,17,1228.112,17L1231.395,17"/><path marker-end="url(#mermaid-svg-1770547757153-5jscnpj3a_flowchart-pointEnd)" style="fill:none;" class="edge-thickness-normal edge-pattern-solid flowchart-link LS-Log LE-Stats" id="L-Log-Stats-0" d="M1360.391,17L1364.557,17C1368.724,17,1377.057,17,1386.196,18.28C1395.334,19.56,1405.278,22.119,1410.25,23.399L1415.222,24.679"/><path marker-end="url(#mermaid-svg-1770547757153-5jscnpj3a_flowchart-pointEnd)" style="fill:none;" class="edge-thickness-normal edge-pattern-solid flowchart-link LS-Stats LE-Wait" id="L-Stats-Wait-0" d="M1420.355,60L1414.527,61.5C1408.7,63,1397.045,66,1376.743,67.5C1356.441,69,1327.492,69,1298.543,69C1269.594,69,1240.645,69,1215.505,69C1190.366,69,1169.036,69,1147.707,69C1126.378,69,1105.048,69,1078.76,69C1052.473,69,1021.227,69,989.98,69C958.734,69,927.488,69,896.821,69C866.154,69,836.065,69,805.977,69C775.888,69,745.799,69,726.294,67.74C706.788,66.48,697.864,63.96,693.403,62.7L688.941,61.44"/></g><g class="edgeLabels"><g class="edgeLabel"><g transform="translate(0, 0)" class="label"><rect height="0" width="0" ry="0" rx="0"/><text style=""><tspan class="row" x="0" dy="1em" xml:space="preserve"/></text></g></g><g class="edgeLabel"><g transform="translate(0, 0)" class="label"><rect height="0" width="0" ry="0" rx="0"/><text style=""><tspan class="row" x="0" dy="1em" xml:space="preserve"/></text></g></g><g class="edgeLabel"><g transform="translate(0, 0)" class="label"><rect height="0" width="0" ry="0" rx="0"/><text style=""><tspan class="row" x="0" dy="1em" xml:space="preserve"/></text></g></g><g class="edgeLabel"><g transform="translate(0, 0)" class="label"><rect height="0" width="0" ry="0" rx="0"/><text style=""><tspan class="row" x="0" dy="1em" xml:space="preserve"/></text></g></g><g class="edgeLabel"><g transform="translate(0, 0)" class="label"><rect height="0" width="0" ry="0" rx="0"/><text style=""><tspan class="row" x="0" dy="1em" xml:space="preserve"/></text></g></g><g class="edgeLabel"><g transform="translate(0, 0)" class="label"><rect height="0" width="0" ry="0" rx="0"/><text style=""><tspan class="row" x="0" dy="1em" xml:space="preserve"/></text></g></g><g class="edgeLabel"><g transform="translate(0, 0)" class="label"><rect height="0" width="0" ry="0" rx="0"/><text style=""><tspan class="row" x="0" dy="1em" xml:space="preserve"/></text></g></g><g class="edgeLabel"><g transform="translate(0, 0)" class="label"><rect height="0" width="0" ry="0" rx="0"/><text style=""><tspan class="row" x="0" dy="1em" xml:space="preserve"/></text></g></g><g class="edgeLabel"><g transform="translate(0, 0)" class="label"><rect height="0" width="0" ry="0" rx="0"/><text style=""><tspan class="row" x="0" dy="1em" xml:space="preserve"/></text></g></g></g><g class="nodes"><g transform="translate(50.453125, 43)" id="flowchart-ServerStart-0" class="node default default flowchart-label"><rect height="34" width="100.90625" y="-17" x="-50.453125" ry="0" rx="0" style="" class="basic label-container"/><g transform="translate(0, -9.5)" style="" class="label"><rect/><text style=""><tspan class="row" x="0" dy="1em" xml:space="preserve">Server Start</tspan></text></g></g><g transform="translate(222.41796875, 43)" id="flowchart-Init-1" class="node default default flowchart-label"><rect height="34" width="143.0234375" y="-17" x="-71.51171875" ry="0" rx="0" style="" class="basic label-container"/><g transform="translate(0, -9.5)" style="" class="label"><rect/><text style=""><tspan class="row" x="0" dy="1em" xml:space="preserve">initializeCronJobs</tspan></text></g></g><g transform="translate(425.25, 43)" id="flowchart-Schedule-3" class="node default default flowchart-label"><rect height="34" width="162.640625" y="-17" x="-81.3203125" ry="0" rx="0" style="" class="basic label-container"/><g transform="translate(0, -9.5)" style="" class="label"><rect/><text style=""><tspan class="row" x="0" dy="1em" xml:space="preserve">scheduleCronJob × 3</tspan></text></g></g><g transform="translate(623.640625, 43)" id="flowchart-Wait-5" class="node default default flowchart-label"><rect height="34" width="134.140625" y="-17" x="-67.0703125" ry="0" rx="0" style="" class="basic label-container"/><g transform="translate(0, -9.5)" style="" class="label"><rect/><text style=""><tspan class="row" x="0" dy="1em" xml:space="preserve">Wait for Interval</tspan></text></g></g><g transform="translate(805.9765625, 17)" id="flowchart-Execute-7" class="node default default flowchart-label"><rect height="34" width="130.53125" y="-17" x="-65.265625" ry="0" rx="0" style="" class="basic label-container"/><g transform="translate(0, -9.5)" style="" class="label"><rect/><text style=""><tspan class="row" x="0" dy="1em" xml:space="preserve">executeCronJob</tspan></text></g></g><g transform="translate(989.98046875, 17)" id="flowchart-Check-9" class="node default default flowchart-label"><rect height="34" width="137.4765625" y="-17" x="-68.73828125" ry="0" rx="0" style="" class="basic label-container"/><g transform="translate(0, -9.5)" style="" class="label"><rect/><text style=""><tspan class="row" x="0" dy="1em" xml:space="preserve">executeUrlCheck</tspan></text></g></g><g transform="translate(1147.70703125, 17)" id="flowchart-URLCheck-11" class="node default default flowchart-label"><rect height="34" width="77.9765625" y="-17" x="-38.98828125" ry="0" rx="0" style="" class="basic label-container"/><g transform="translate(0, -9.5)" style="" class="label"><rect/><text style=""><tspan class="row" x="0" dy="1em" xml:space="preserve">checkUrl</tspan></text></g></g><g transform="translate(1298.54296875, 17)" id="flowchart-Log-13" class="node default default flowchart-label"><rect height="34" width="123.6953125" y="-17" x="-61.84765625" ry="0" rx="0" style="" class="basic label-container"/><g transform="translate(0, -9.5)" style="" class="label"><rect/><text style=""><tspan class="row" x="0" dy="1em" xml:space="preserve">logCheckResult</tspan></text></g></g><g transform="translate(1486.3984375, 43)" id="flowchart-Stats-15" class="node default default flowchart-label"><rect height="34" width="152.015625" y="-17" x="-76.0078125" ry="0" rx="0" style="" class="basic label-container"/><g transform="translate(0, -9.5)" style="" class="label"><rect/><text style=""><tspan class="row" x="0" dy="1em" xml:space="preserve">updateUrlStatistics</tspan></text></g></g></g></g></g></svg>